<svg xmlns="http://www.w3.org/2000/svg" width="25" height="24" fill="none" viewBox="0 0 25 24"><mask id="a1yI6yT2dYa" width="21" height="20" x="2" y="2" maskUnits="userSpaceOnUse" style="mask-type:alpha"><path fill="#D9D9D9" fill-rule="evenodd" d="M23 2H2v20h21zM3.5 8a.75.75 0 0 0 0 1.5h18a.75.75 0 0 0 0-1.5zm4 5.5c0 .55.45 1 1 1 .56 0 1-.45 1-1s-.45-1-1-1-1 .45-1 1m5 1c-.55 0-1-.45-1-1s.44-1 1-1c.55 0 1 .45 1 1s-.45 1-1 1m3-1c0 .55.45 1 1 1s1-.45 1-1-.45-1-1-1c-.56 0-1 .45-1 1m-7 4.5c-.55 0-1-.45-1-1s.45-1 1-1 1 .45 1 1-.44 1-1 1m3-1c0 .55.45 1 1 1s1-.45 1-1-.45-1-1-1c-.56 0-1 .45-1 1" clip-rule="evenodd"/></mask><g stroke="#121331" stroke-linejoin="round" mask="url(#a1yI6yT2dYa)"><path fill="#121331" stroke-width="1.5" d="M4.25 5.75a1 1 0 0 1 1-1h14.5a1 1 0 0 1 1 1v13.5a1 1 0 0 1-1 1H5.25a1 1 0 0 1-1-1z"/><path stroke-linecap="round" stroke-width="2" d="M8.5 3v1.75m8-1.75v1.75"/></g></svg>